<svg xmlns="http://www.w3.org/2000/svg"  viewBox="0 0 512 512" width="64px" height="64px"><path fill="#319953" d="M7.9,256C7.9,119,119,7.9,256,7.9C393,7.9,504.1,119,504.1,256c0,137-111.1,248.1-248.1,248.1C119,504.1,7.9,393,7.9,256z"/><path fill="#FFF" d="M154.4 203.09999999999997A53.8 53.8 0 1 0 154.4 310.7 53.8 53.8 0 1 0 154.4 203.09999999999997zM318.7 107.39999999999999A53.8 53.8 0 1 0 318.7 215 53.8 53.8 0 1 0 318.7 107.39999999999999zM318.7 297A53.8 53.8 0 1 0 318.7 404.6 53.8 53.8 0 1 0 318.7 297z"/><g><path fill="#FFF" d="M222.1 112.2H251V302.3H222.1z" transform="rotate(59.786 236.552 207.272)"/></g><g><path fill="#FFF" d="M141.5 288.5H331.6V317.4H141.5z" transform="rotate(30.214 236.576 302.965)"/></g></svg>