<svg width="23" height="23" viewBox="0 0 23 23" fill="none" xmlns="http://www.w3.org/2000/svg">
<path d="M11.5 2.33325C8.97275 2.33325 6.91666 4.38934 6.91666 6.91659V9.66659H6C4.98891 9.66659 4.16666 10.4888 4.16666 11.4999V18.8333C4.16666 19.8443 4.98891 20.6666 6 20.6666H17C18.0111 20.6666 18.8333 19.8443 18.8333 18.8333V11.4999C18.8333 10.4888 18.0111 9.66659 17 9.66659H16.0833V6.91659C16.0833 4.38934 14.0272 2.33325 11.5 2.33325ZM17 11.4999L17.0018 18.8333H6V11.4999H17ZM8.75 9.66659V6.91659C8.75 5.40042 9.98383 4.16659 11.5 4.16659C13.0162 4.16659 14.25 5.40042 14.25 6.91659V9.66659H8.75Z" fill="#B7B2CC"/>
</svg>
