{
    "asset" : {
        "generator" : "Khronos glTF Blender I/O v1.0.5",
        "version" : "2.0"
    },
    "scene" : 0,
    "scenes" : [
        {
            "name" : "Scene",
            "nodes" : [
                6,
                13
            ]
        }
    ],
    "nodes" : [
        {
            "mesh" : 0,
            "name" : "head",
            "scale" : [
                1.3007785081863403,
                1.3007785081863403,
                1.3007785081863403
            ],
            "translation" : [
                0,
                1.5820468664169312,
                0.41577625274658203
            ]
        },
        {
            "mesh" : 1,
            "name" : "leg_l0",
            "translation" : [
                -0.5564310550689697,
                0.8382869958877563,
                -0.9856079816818237
            ]
        },
        {
            "mesh" : 1,
            "name" : "leg_l1",
            "translation" : [
                -0.5156040191650391,
                -1.3255447149276733,
                -1.0128259658813477
            ]
        },
        {
            "mesh" : 1,
            "name" : "leg_r0",
            "translation" : [
                0.5236544013023376,
                0.8460268974304199,
                -0.99993896484375
            ]
        },
        {
            "mesh" : 1,
            "name" : "leg_r1",
            "translation" : [
                0.5236544013023376,
                -1.3249872922897339,
                -0.99993896484375
            ]
        },
        {
            "children" : [
                0,
                1,
                2,
                3,
                4
            ],
            "mesh" : 2,
            "name" : "body",
            "translation" : [
                0,
                0.13609002530574799,
                2.4810519218444824
            ]
        },
        {
            "children" : [
                5
            ],
            "name" : "model:70"
        },
        {
            "mesh" : 3,
            "name" : "head.001",
            "scale" : [
                1.3007785081863403,
                1.3007785081863403,
                1.3007785081863403
            ],
            "translation" : [
                0,
                1.5820468664169312,
                0.41577625274658203
            ]
        },
        {
            "mesh" : 4,
            "name" : "leg_l0.001",
            "translation" : [
                -0.5564308166503906,
                0.8382869958877563,
                -0.9856079816818237
            ]
        },
        {
            "mesh" : 4,
            "name" : "leg_l1.001",
            "translation" : [
                -0.5156040191650391,
                -1.3255447149276733,
                -1.0128259658813477
            ]
        },
        {
            "mesh" : 4,
            "name" : "leg_r0.001",
            "translation" : [
                0.5236539840698242,
                0.8460268974304199,
                -0.99993896484375
            ]
        },
        {
            "mesh" : 4,
            "name" : "leg_r1.001",
            "translation" : [
                0.5236539840698242,
                -1.3249872922897339,
                -0.99993896484375
            ]
        },
        {
            "children" : [
                7,
                8,
                9,
                10,
                11
            ],
            "mesh" : 5,
            "name" : "body.001",
            "translation" : [
                0,
                0.13609002530574799,
                2.4810519218444824
            ]
        },
        {
            "children" : [
                12
            ],
            "name" : "model:71",
            "translation" : [
                11.55140495300293,
                -1.052561640739441,
                0.012022256851196289
            ]
        }
    ],
    "meshes" : [
        {
            "name" : "head_mesh",
            "primitives" : [
                {
                    "attributes" : {
                        "POSITION" : 0,
                        "NORMAL" : 1,
                        "TEXCOORD_0" : 2
                    },
                    "indices" : 3
                }
            ]
        },
        {
            "name" : "leg_mesh",
            "primitives" : [
                {
                    "attributes" : {
                        "POSITION" : 4,
                        "NORMAL" : 5,
                        "TEXCOORD_0" : 6
                    },
                    "indices" : 7
                }
            ]
        },
        {
            "name" : "body_mesh",
            "primitives" : [
                {
                    "attributes" : {
                        "POSITION" : 8,
                        "NORMAL" : 9,
                        "TEXCOORD_0" : 10
                    },
                    "indices" : 7
                }
            ]
        },
        {
            "name" : "head_mesh.001",
            "primitives" : [
                {
                    "attributes" : {
                        "POSITION" : 11,
                        "NORMAL" : 12,
                        "TEXCOORD_0" : 13
                    },
                    "indices" : 14
                }
            ]
        },
        {
            "name" : "leg_mesh.001",
            "primitives" : [
                {
                    "attributes" : {
                        "POSITION" : 15,
                        "NORMAL" : 16,
                        "TEXCOORD_0" : 17
                    },
                    "indices" : 7
                }
            ]
        },
        {
            "name" : "body_mesh.001",
            "primitives" : [
                {
                    "attributes" : {
                        "POSITION" : 18,
                        "NORMAL" : 19,
                        "TEXCOORD_0" : 20
                    },
                    "indices" : 21
                }
            ]
        }
    ],
    "accessors" : [
        {
            "bufferView" : 0,
            "componentType" : 5126,
            "count" : 168,
            "max" : [
                3.440446376800537,
                2.344395160675049,
                2.4220526218414307
            ],
            "min" : [
                -3.428778648376465,
                -0.4478285312652588,
                -0.7860806584358215
            ],
            "type" : "VEC3"
        },
        {
            "bufferView" : 1,
            "componentType" : 5126,
            "count" : 168,
            "type" : "VEC3"
        },
        {
            "bufferView" : 2,
            "componentType" : 5126,
            "count" : 168,
            "type" : "VEC2"
        },
        {
            "bufferView" : 3,
            "componentType" : 5123,
            "count" : 252,
            "type" : "SCALAR"
        },
        {
            "bufferView" : 4,
            "componentType" : 5126,
            "count" : 24,
            "max" : [
                0.3999999761581421,
                0.3863909840583801,
                0.05233180522918701
            ],
            "min" : [
                -0.3999999761581421,
                -0.4136090874671936,
                -1.4676681756973267
            ],
            "type" : "VEC3"
        },
        {
            "bufferView" : 5,
            "componentType" : 5126,
            "count" : 24,
            "type" : "VEC3"
        },
        {
            "bufferView" : 6,
            "componentType" : 5126,
            "count" : 24,
            "type" : "VEC2"
        },
        {
            "bufferView" : 7,
            "componentType" : 5123,
            "count" : 36,
            "type" : "SCALAR"
        },
        {
            "bufferView" : 8,
            "componentType" : 5126,
            "count" : 24,
            "max" : [
                1,
                2,
                1
            ],
            "min" : [
                -1,
                -2,
                -1
            ],
            "type" : "VEC3"
        },
        {
            "bufferView" : 9,
            "componentType" : 5126,
            "count" : 24,
            "type" : "VEC3"
        },
        {
            "bufferView" : 10,
            "componentType" : 5126,
            "count" : 24,
            "type" : "VEC2"
        },
        {
            "bufferView" : 11,
            "componentType" : 5126,
            "count" : 96,
            "max" : [
                1.7596032619476318,
                1.8679118156433105,
                1.5969157218933105
            ],
            "min" : [
                -1.7563526630401611,
                -0.4478285312652588,
                -0.46235936880111694
            ],
            "type" : "VEC3"
        },
        {
            "bufferView" : 12,
            "componentType" : 5126,
            "count" : 96,
            "type" : "VEC3"
        },
        {
            "bufferView" : 13,
            "componentType" : 5126,
            "count" : 96,
            "type" : "VEC2"
        },
        {
            "bufferView" : 14,
            "componentType" : 5123,
            "count" : 144,
            "type" : "SCALAR"
        },
        {
            "bufferView" : 15,
            "componentType" : 5126,
            "count" : 24,
            "max" : [
                0.3999999761581421,
                0.3863909840583801,
                0.05233180522918701
            ],
            "min" : [
                -0.3999999761581421,
                -0.4136090874671936,
                -1.4676681756973267
            ],
            "type" : "VEC3"
        },
        {
            "bufferView" : 16,
            "componentType" : 5126,
            "count" : 24,
            "type" : "VEC3"
        },
        {
            "bufferView" : 17,
            "componentType" : 5126,
            "count" : 24,
            "type" : "VEC2"
        },
        {
            "bufferView" : 18,
            "componentType" : 5126,
            "count" : 48,
            "max" : [
                1,
                2,
                1
            ],
            "min" : [
                -1,
                -2.2671098709106445,
                -1
            ],
            "type" : "VEC3"
        },
        {
            "bufferView" : 19,
            "componentType" : 5126,
            "count" : 48,
            "type" : "VEC3"
        },
        {
            "bufferView" : 20,
            "componentType" : 5126,
            "count" : 48,
            "type" : "VEC2"
        },
        {
            "bufferView" : 21,
            "componentType" : 5123,
            "count" : 72,
            "type" : "SCALAR"
        }
    ],
    "bufferViews" : [
        {
            "buffer" : 0,
            "byteLength" : 2016,
            "byteOffset" : 0
        },
        {
            "buffer" : 0,
            "byteLength" : 2016,
            "byteOffset" : 2016
        },
        {
            "buffer" : 0,
            "byteLength" : 1344,
            "byteOffset" : 4032
        },
        {
            "buffer" : 0,
            "byteLength" : 504,
            "byteOffset" : 5376
        },
        {
            "buffer" : 0,
            "byteLength" : 288,
            "byteOffset" : 5880
        },
        {
            "buffer" : 0,
            "byteLength" : 288,
            "byteOffset" : 6168
        },
        {
            "buffer" : 0,
            "byteLength" : 192,
            "byteOffset" : 6456
        },
        {
            "buffer" : 0,
            "byteLength" : 72,
            "byteOffset" : 6648
        },
        {
            "buffer" : 0,
            "byteLength" : 288,
            "byteOffset" : 6720
        },
        {
            "buffer" : 0,
            "byteLength" : 288,
            "byteOffset" : 7008
        },
        {
            "buffer" : 0,
            "byteLength" : 192,
            "byteOffset" : 7296
        },
        {
            "buffer" : 0,
            "byteLength" : 1152,
            "byteOffset" : 7488
        },
        {
            "buffer" : 0,
            "byteLength" : 1152,
            "byteOffset" : 8640
        },
        {
            "buffer" : 0,
            "byteLength" : 768,
            "byteOffset" : 9792
        },
        {
            "buffer" : 0,
            "byteLength" : 288,
            "byteOffset" : 10560
        },
        {
            "buffer" : 0,
            "byteLength" : 288,
            "byteOffset" : 10848
        },
        {
            "buffer" : 0,
            "byteLength" : 288,
            "byteOffset" : 11136
        },
        {
            "buffer" : 0,
            "byteLength" : 192,
            "byteOffset" : 11424
        },
        {
            "buffer" : 0,
            "byteLength" : 576,
            "byteOffset" : 11616
        },
        {
            "buffer" : 0,
            "byteLength" : 576,
            "byteOffset" : 12192
        },
        {
            "buffer" : 0,
            "byteLength" : 384,
            "byteOffset" : 12768
        },
        {
            "buffer" : 0,
            "byteLength" : 144,
            "byteOffset" : 13152
        }
    ],
    "buffers" : [
        {
            "byteLength" : 13296,
            "uri" : "data:application/octet-stream;base64,"
        }
    ]
}
