<svg width="50" height="50" viewBox="0 0 50 50" fill="none" xmlns="http://www.w3.org/2000/svg">
<rect width="50" height="50" rx="12" fill="#5865F2"/>
<g clip-path="url(#clip0_1064_6086)">
<path d="M34.7031 16.2406C32.9181 15.4356 31.0048 14.8406 29.004 14.5022C28.9861 14.4988 28.9677 14.501 28.9512 14.5085C28.9347 14.5161 28.9209 14.5285 28.9118 14.5442C28.6668 14.9747 28.3938 15.5359 28.2025 15.9792C26.0804 15.6622 23.923 15.6622 21.801 15.9792C21.5878 15.4879 21.3475 15.0088 21.0811 14.5442C21.0721 14.5283 21.0584 14.5156 21.042 14.5077C21.0255 14.4997 21.007 14.497 20.989 14.4999C18.9893 14.8382 17.076 15.4332 15.2898 16.2394C15.2744 16.2458 15.2614 16.2568 15.2525 16.2709C11.6218 21.6084 10.6266 26.8141 11.1155 31.9544C11.1168 31.967 11.1207 31.9792 11.1269 31.9902C11.1332 32.0012 11.1416 32.0109 11.1516 32.0186C13.2707 33.5614 15.6343 34.7367 18.1435 35.4952C18.1609 35.5006 18.1796 35.5006 18.1971 35.4952C18.2146 35.4898 18.2301 35.4792 18.2415 35.4649C18.7814 34.7428 19.2598 33.9767 19.6718 33.1747C19.6775 33.1638 19.6808 33.1517 19.6814 33.1393C19.6821 33.127 19.6801 33.1146 19.6756 33.1031C19.671 33.0916 19.6641 33.0812 19.6552 33.0727C19.6463 33.0641 19.6356 33.0575 19.624 33.0534C18.8703 32.7696 18.14 32.4271 17.44 32.0291C17.4274 32.0219 17.4168 32.0117 17.4091 31.9994C17.4014 31.9871 17.3969 31.9731 17.396 31.9587C17.3951 31.9442 17.3978 31.9297 17.4038 31.9166C17.4098 31.9034 17.4191 31.8919 17.4306 31.8832C17.5776 31.7747 17.7246 31.6616 17.8646 31.5484C17.8772 31.5382 17.8924 31.5317 17.9085 31.5297C17.9245 31.5276 17.9409 31.5301 17.9556 31.5367C22.5371 33.5947 27.499 33.5947 32.0268 31.5367C32.0416 31.5297 32.0581 31.5269 32.0744 31.5288C32.0907 31.5306 32.1061 31.537 32.119 31.5472C32.259 31.6616 32.4048 31.7747 32.553 31.8832C32.5646 31.8918 32.574 31.9031 32.5802 31.9161C32.5865 31.9292 32.5894 31.9436 32.5887 31.958C32.588 31.9725 32.5837 31.9865 32.5763 31.9989C32.5688 32.0113 32.5584 32.0217 32.546 32.0291C31.8483 32.4304 31.1226 32.7699 30.3608 33.0522C30.3491 33.0565 30.3384 33.0632 30.3295 33.0719C30.3206 33.0806 30.3137 33.091 30.3091 33.1026C30.3046 33.1142 30.3026 33.1267 30.3033 33.1391C30.3039 33.1515 30.3072 33.1637 30.313 33.1747C30.733 33.9762 31.2136 34.7392 31.7421 35.4637C31.7531 35.4786 31.7684 35.4897 31.786 35.4955C31.8035 35.5014 31.8224 35.5017 31.8401 35.4964C34.3535 34.74 36.721 33.5641 38.8425 32.0186C38.8528 32.0113 38.8615 32.002 38.8679 31.9911C38.8744 31.9802 38.8784 31.9681 38.8798 31.9556C39.4631 26.0126 37.9021 20.8489 34.7393 16.2732C34.7315 16.2584 34.7187 16.2468 34.7031 16.2406ZM20.3566 28.8242C18.9776 28.8242 17.8401 27.5771 17.8401 26.0476C17.8401 24.5169 18.9555 23.2709 20.3566 23.2709C21.7683 23.2709 22.8953 24.5274 22.8731 26.0476C22.8731 27.5782 21.7578 28.8242 20.3566 28.8242ZM29.6608 28.8242C28.2806 28.8242 27.1443 27.5771 27.1443 26.0476C27.1443 24.5169 28.2585 23.2709 29.6608 23.2709C31.0725 23.2709 32.1995 24.5274 32.1773 26.0476C32.1773 27.5782 31.0736 28.8242 29.6608 28.8242Z" fill="white"/>
</g>
<defs>
<clipPath id="clip0_1064_6086">
<rect width="28" height="28" fill="white" transform="translate(11 11)"/>
</clipPath>
</defs>
</svg>
