<svg width="50" height="50" viewBox="0 0 50 50" fill="none" xmlns="http://www.w3.org/2000/svg">
<rect width="50" height="50" rx="12" fill="#FF0000"/>
<g clip-path="url(#clip0_1064_6087)">
<path d="M38.4167 18.5915C38.2581 18.0259 37.9493 17.5139 37.523 17.1098C37.0847 16.6933 36.5474 16.3954 35.962 16.2442C33.771 15.6667 24.993 15.6667 24.993 15.6667C21.3335 15.625 17.675 15.8082 14.038 16.215C13.4525 16.3774 12.9163 16.682 12.477 17.1017C12.0453 17.517 11.7327 18.0292 11.5693 18.5903C11.177 20.704 10.9863 22.8502 11 25C10.986 27.1478 11.1762 29.2933 11.5693 31.4097C11.7292 31.9685 12.0407 32.4783 12.4735 32.8902C12.9063 33.302 13.4453 33.5995 14.038 33.757C16.2582 34.3333 24.993 34.3333 24.993 34.3333C28.6571 34.375 32.3203 34.1919 35.962 33.785C36.5474 33.6338 37.0847 33.3358 37.523 32.9193C37.9491 32.5154 38.2576 32.0032 38.4155 31.4377C38.8181 29.3248 39.0138 27.1777 39 25.0268C39.0303 22.8669 38.8348 20.7097 38.4167 18.5903V18.5915ZM22.2023 28.9947V21.0065L29.5057 25.0012L22.2023 28.9947Z" fill="white"/>
</g>
<defs>
<clipPath id="clip0_1064_6087">
<rect width="28" height="28" fill="white" transform="translate(11 11)"/>
</clipPath>
</defs>
</svg>
