<svg width="18" height="18" viewBox="0 0 18 18" fill="none" xmlns="http://www.w3.org/2000/svg">
<path d="M9 1.5C8.25832 1.5 7.5333 1.71993 6.91661 2.13199C6.29993 2.54404 5.81928 3.12971 5.53545 3.81494C5.25162 4.50016 5.17736 5.25416 5.32206 5.98159C5.46675 6.70902 5.8239 7.3772 6.34835 7.90165C6.8728 8.4261 7.54098 8.78325 8.26841 8.92795C8.99584 9.07264 9.74984 8.99838 10.4351 8.71455C11.1203 8.43072 11.706 7.95007 12.118 7.33339C12.5301 6.7167 12.75 5.99168 12.75 5.25C12.75 4.25544 12.3549 3.30161 11.6517 2.59835C10.9484 1.89509 9.99456 1.5 9 1.5ZM9 7.5C8.55499 7.5 8.11998 7.36804 7.74997 7.12081C7.37996 6.87357 7.09157 6.52217 6.92127 6.11104C6.75097 5.6999 6.70642 5.2475 6.79323 4.81105C6.88005 4.37459 7.09434 3.97368 7.40901 3.65901C7.72368 3.34434 8.12459 3.13005 8.56105 3.04323C8.9975 2.95642 9.4499 3.00097 9.86104 3.17127C10.2722 3.34157 10.6236 3.62996 10.8708 3.99997C11.118 4.36998 11.25 4.80499 11.25 5.25C11.25 5.84674 11.0129 6.41903 10.591 6.84099C10.169 7.26295 9.59674 7.5 9 7.5ZM15.75 15.75V15C15.75 13.6076 15.1969 12.2723 14.2123 11.2877C13.2277 10.3031 11.8924 9.75 10.5 9.75H7.5C6.10761 9.75 4.77226 10.3031 3.78769 11.2877C2.80312 12.2723 2.25 13.6076 2.25 15V15.75H3.75V15C3.75 14.0054 4.14509 13.0516 4.84835 12.3483C5.55161 11.6451 6.50544 11.25 7.5 11.25H10.5C11.4946 11.25 12.4484 11.6451 13.1517 12.3483C13.8549 13.0516 14.25 14.0054 14.25 15V15.75H15.75Z" fill="#AEEA00"/>
</svg>
