<svg width="24" height="24" viewBox="0 0 24 24" fill="none" xmlns="http://www.w3.org/2000/svg">
<path d="M0.734758 15.8161L3.06809 19.8528C3.223 20.1205 3.47791 20.3158 3.77676 20.3956C4.07561 20.4755 4.39394 20.4334 4.66176 20.2786L6.29042 19.3383C6.96709 19.8714 7.71493 20.3089 8.50126 20.6356V22.4999C8.50126 22.8093 8.62417 23.1061 8.84297 23.3249C9.06176 23.5437 9.35851 23.6666 9.66793 23.6666H14.3346C14.644 23.6666 14.9408 23.5437 15.1596 23.3249C15.3783 23.1061 15.5013 22.8093 15.5013 22.4999V20.6356C16.2937 20.3056 17.0375 19.8692 17.7121 19.3383L19.3408 20.2786C19.8973 20.5994 20.6136 20.4069 20.9344 19.8528L23.2678 15.8161C23.4213 15.548 23.4627 15.2301 23.383 14.9316C23.3032 14.6331 23.1087 14.3782 22.8419 14.2224L21.2413 13.2973C21.3663 12.4368 21.3655 11.5628 21.2389 10.7026L22.8396 9.77742C23.3949 9.45659 23.5874 8.73909 23.2654 8.18375L20.9321 4.14709C20.7772 3.87933 20.5223 3.68406 20.2234 3.60421C19.9246 3.52435 19.6062 3.56645 19.3384 3.72125L17.7098 4.66159C17.0361 4.13003 16.2926 3.6935 15.5001 3.36425V1.49992C15.5001 1.1905 15.3772 0.893753 15.1584 0.674961C14.9396 0.456168 14.6428 0.333252 14.3334 0.333252H9.66676C9.35734 0.333252 9.06059 0.456168 8.8418 0.674961C8.62301 0.893753 8.50009 1.1905 8.50009 1.49992V3.36425C7.70761 3.6942 6.96381 4.13066 6.28926 4.66159L4.66176 3.72125C4.52919 3.64445 4.38277 3.59454 4.2309 3.57437C4.07902 3.55421 3.92465 3.56419 3.77663 3.60374C3.62861 3.64329 3.48985 3.71164 3.36827 3.80487C3.24669 3.8981 3.14468 4.01439 3.06809 4.14709L0.734758 8.18375C0.581211 8.45186 0.539808 8.76977 0.619565 9.06826C0.699322 9.36675 0.89378 9.62164 1.16059 9.77742L2.76126 10.7026C2.63542 11.5629 2.63542 12.4369 2.76126 13.2973L1.16059 14.2224C0.605258 14.5433 0.412758 15.2608 0.734758 15.8161ZM12.0001 7.33325C14.5738 7.33325 16.6668 9.42625 16.6668 11.9999C16.6668 14.5736 14.5738 16.6666 12.0001 16.6666C9.42643 16.6666 7.33343 14.5736 7.33343 11.9999C7.33343 9.42625 9.42643 7.33325 12.0001 7.33325Z" fill="white"/>
</svg>
